<svg width="135" height="20" viewBox="0 0 135 20" fill="none" xmlns="http://www.w3.org/2000/svg">
<path d="M0.675 9.975C0.675 8.89167 0.875 7.83333 1.275 6.8C1.675 5.75 2.25833 4.8 3.025 3.95C3.79167 3.1 4.725 2.425 5.825 1.925C6.925 1.40833 8.175 1.15 9.575 1.15C11.2417 1.15 12.6833 1.50833 13.9 2.225C15.1333 2.94167 16.05 3.875 16.65 5.025L13.5 7.225C13.2333 6.59167 12.875 6.1 12.425 5.75C11.9917 5.4 11.5083 5.15833 10.975 5.025C10.4583 4.875 9.95833 4.8 9.475 4.8C8.69167 4.8 8.00833 4.95833 7.425 5.275C6.84167 5.575 6.35833 5.98333 5.975 6.5C5.59167 7.01667 5.30833 7.59167 5.125 8.225C4.94167 8.85833 4.85 9.49167 4.85 10.125C4.85 10.825 4.95833 11.5 5.175 12.15C5.39167 12.8 5.7 13.375 6.1 13.875C6.51667 14.375 7.01667 14.775 7.6 15.075C8.18333 15.3583 8.825 15.5 9.525 15.5C10.025 15.5 10.5333 15.4167 11.05 15.25C11.5667 15.0833 12.0417 14.825 12.475 14.475C12.925 14.1083 13.2667 13.6333 13.5 13.05L16.85 15.025C16.5 15.8917 15.925 16.6333 15.125 17.25C14.325 17.8667 13.4167 18.3417 12.4 18.675C11.4 18.9917 10.4083 19.15 9.425 19.15C8.14167 19.15 6.95833 18.8917 5.875 18.375C4.80833 17.8417 3.88333 17.1417 3.1 16.275C2.33333 15.3917 1.73333 14.4083 1.3 13.325C0.883333 12.225 0.675 11.1083 0.675 9.975ZM43.7158 12.425C43.7158 11.1417 43.9658 9.99167 44.4658 8.975C44.9658 7.94167 45.6492 7.125 46.5158 6.525C47.3825 5.925 48.3825 5.625 49.5158 5.625C50.4325 5.625 51.2658 5.85 52.0158 6.3C52.7658 6.73333 53.3325 7.30833 53.7158 8.025V0.75H57.7158V14.55C57.7158 14.95 57.7825 15.2333 57.9158 15.4C58.0492 15.55 58.2658 15.6417 58.5658 15.675V19C57.8658 19.1333 57.2992 19.2 56.8658 19.2C56.1825 19.2 55.6242 19.05 55.1908 18.75C54.7742 18.45 54.5158 18.0333 54.4158 17.5L54.3408 16.825C53.8742 17.6417 53.2408 18.25 52.4408 18.65C51.6408 19.05 50.7992 19.25 49.9158 19.25C49.0158 19.25 48.1825 19.0833 47.4158 18.75C46.6658 18.4 46.0075 17.9167 45.4408 17.3C44.8908 16.6833 44.4658 15.9583 44.1658 15.125C43.8658 14.2917 43.7158 13.3917 43.7158 12.425ZM53.7408 14.05V11.3C53.5742 10.85 53.3325 10.4583 53.0158 10.125C52.7158 9.79167 52.3658 9.525 51.9658 9.325C51.5825 9.125 51.1908 9.025 50.7908 9.025C50.3575 9.025 49.9575 9.11667 49.5908 9.3C49.2408 9.48333 48.9325 9.74167 48.6658 10.075C48.3992 10.3917 48.1908 10.7583 48.0408 11.175C47.9075 11.5917 47.8408 12.0333 47.8408 12.5C47.8408 12.9833 47.9158 13.4333 48.0658 13.85C48.2325 14.25 48.4575 14.6083 48.7408 14.925C49.0242 15.225 49.3575 15.4583 49.7408 15.625C50.1242 15.7917 50.5408 15.875 50.9908 15.875C51.2742 15.875 51.5492 15.8333 51.8158 15.75C52.0825 15.65 52.3325 15.525 52.5658 15.375C52.8158 15.225 53.0408 15.0333 53.2408 14.8C53.4408 14.5667 53.6075 14.3167 53.7408 14.05ZM67.0982 19.25C65.9816 19.25 64.9899 19.075 64.1232 18.725C63.2566 18.3583 62.5149 17.8667 61.8982 17.25C61.2982 16.6333 60.8399 15.925 60.5232 15.125C60.2066 14.3083 60.0482 13.4583 60.0482 12.575C60.0482 11.3083 60.3232 10.1583 60.8732 9.125C61.4399 8.075 62.2482 7.23333 63.2982 6.6C64.3482 5.95 65.6149 5.625 67.0982 5.625C68.5816 5.625 69.8399 5.94167 70.8732 6.575C71.9232 7.20833 72.7232 8.04167 73.2732 9.075C73.8232 10.0917 74.0982 11.2 74.0982 12.4C74.0982 12.6333 74.0816 12.8667 74.0482 13.1C74.0316 13.3167 74.0149 13.5083 73.9982 13.675H64.2982C64.3482 14.2583 64.5066 14.75 64.7732 15.15C65.0566 15.55 65.4149 15.8583 65.8482 16.075C66.2816 16.275 66.7399 16.375 67.2232 16.375C67.8232 16.375 68.3816 16.2333 68.8982 15.95C69.4316 15.6667 69.7982 15.2833 69.9982 14.8L73.3982 15.75C73.0649 16.4333 72.5899 17.0417 71.9732 17.575C71.3732 18.0917 70.6566 18.5 69.8232 18.8C69.0066 19.1 68.0982 19.25 67.0982 19.25ZM64.1982 11.225H69.8982C69.8316 10.675 69.6732 10.2 69.4232 9.8C69.1732 9.38333 68.8399 9.06667 68.4232 8.85C68.0066 8.61667 67.5482 8.5 67.0482 8.5C66.5316 8.5 66.0649 8.61667 65.6482 8.85C65.2482 9.06667 64.9232 9.38333 64.6732 9.8C64.4232 10.2 64.2649 10.675 64.1982 11.225ZM90.0896 19V8.425L86.2646 16.125H84.0146L80.1896 8.425V19H76.0896V1.25H80.5396L85.1396 10.525L89.7646 1.25H94.1896V19H90.0896ZM96.2775 15.075C96.2775 14.2083 96.5192 13.45 97.0025 12.8C97.4859 12.15 98.1525 11.6417 99.0025 11.275C99.8525 10.8917 100.828 10.7 101.928 10.7C102.461 10.7 102.986 10.75 103.503 10.85C104.019 10.9333 104.469 11.0583 104.853 11.225V10.65C104.853 9.93333 104.636 9.38333 104.203 9C103.769 8.61667 103.111 8.425 102.228 8.425C101.494 8.425 100.803 8.55 100.153 8.8C99.5192 9.05 98.8442 9.40833 98.1275 9.875L96.9275 7.325C97.7942 6.75833 98.6942 6.33333 99.6275 6.05C100.578 5.76667 101.578 5.625 102.628 5.625C104.594 5.625 106.119 6.1 107.203 7.05C108.303 7.98333 108.853 9.34167 108.853 11.125V14.55C108.853 14.95 108.911 15.2333 109.028 15.4C109.161 15.55 109.386 15.6417 109.703 15.675V19C109.369 19.0667 109.053 19.1167 108.753 19.15C108.469 19.1833 108.219 19.2 108.003 19.2C107.253 19.2 106.678 19.05 106.278 18.75C105.894 18.45 105.653 18.0417 105.553 17.525L105.478 16.95C104.894 17.7 104.194 18.275 103.378 18.675C102.578 19.0583 101.736 19.25 100.853 19.25C99.9859 19.25 99.2025 19.0667 98.5025 18.7C97.8192 18.3333 97.2775 17.8333 96.8775 17.2C96.4775 16.5667 96.2775 15.8583 96.2775 15.075ZM104.228 15.575C104.411 15.425 104.561 15.2583 104.678 15.075C104.794 14.8917 104.853 14.7167 104.853 14.55V13.375C104.519 13.2417 104.144 13.1417 103.728 13.075C103.328 12.9917 102.953 12.95 102.603 12.95C101.869 12.95 101.261 13.1167 100.778 13.45C100.294 13.7667 100.053 14.1917 100.053 14.725C100.053 15.025 100.136 15.3 100.303 15.55C100.469 15.8 100.694 16 100.978 16.15C101.278 16.3 101.628 16.375 102.028 16.375C102.428 16.375 102.828 16.3 103.228 16.15C103.628 16 103.961 15.8083 104.228 15.575ZM120.129 18.3C119.762 18.45 119.354 18.6 118.904 18.75C118.471 18.9 118.012 19.0167 117.529 19.1C117.046 19.2 116.571 19.25 116.104 19.25C115.437 19.25 114.821 19.1417 114.254 18.925C113.704 18.6917 113.262 18.3167 112.929 17.8C112.612 17.2833 112.454 16.6 112.454 15.75V8.9H110.779V5.875H112.454V1.7H116.454V5.875H119.129V8.9H116.454V14.375C116.454 14.8083 116.562 15.125 116.779 15.325C116.996 15.5083 117.271 15.6 117.604 15.6C117.887 15.6 118.187 15.55 118.504 15.45C118.837 15.35 119.121 15.2417 119.354 15.125L120.129 18.3ZM127.816 19.25C126.699 19.25 125.708 19.075 124.841 18.725C123.974 18.3583 123.233 17.8667 122.616 17.25C122.016 16.6333 121.558 15.925 121.241 15.125C120.924 14.3083 120.766 13.4583 120.766 12.575C120.766 11.3083 121.041 10.1583 121.591 9.125C122.158 8.075 122.966 7.23333 124.016 6.6C125.066 5.95 126.333 5.625 127.816 5.625C129.299 5.625 130.558 5.94167 131.591 6.575C132.641 7.20833 133.441 8.04167 133.991 9.075C134.541 10.0917 134.816 11.2 134.816 12.4C134.816 12.6333 134.799 12.8667 134.766 13.1C134.749 13.3167 134.733 13.5083 134.716 13.675H125.016C125.066 14.2583 125.224 14.75 125.491 15.15C125.774 15.55 126.133 15.8583 126.566 16.075C126.999 16.275 127.458 16.375 127.941 16.375C128.541 16.375 129.099 16.2333 129.616 15.95C130.149 15.6667 130.516 15.2833 130.716 14.8L134.116 15.75C133.783 16.4333 133.308 17.0417 132.691 17.575C132.091 18.0917 131.374 18.5 130.541 18.8C129.724 19.1 128.816 19.25 127.816 19.25ZM124.916 11.225H130.616C130.549 10.675 130.391 10.2 130.141 9.8C129.891 9.38333 129.558 9.06667 129.141 8.85C128.724 8.61667 128.266 8.5 127.766 8.5C127.249 8.5 126.783 8.61667 126.366 8.85C125.966 9.06667 125.641 9.38333 125.391 9.8C125.141 10.2 124.983 10.675 124.916 11.225Z" fill="#F1FAEE"/>
<path d="M18.0119 11.675L28.5619 5.275V9.525L23.8119 12.525L28.5619 15.35V19.825L18.0119 13.575V11.675ZM42.3014 13.575L31.7264 19.825V15.35L36.5014 12.525L31.7264 9.525V5.275L42.3014 11.675V13.575Z" fill="#1976D2"/>
</svg>
